PathFileType	3	(X/Y/Z)	D:\minhoCalibration\240510\subject1_KPNP\preferred\preferred01.trc
DataRate	CameraRate	NumFrames	NumMarkers	Units	OrigDataRate	OrigDataStartFrame	OrigNumFrames
200.0	200.0	21	10	mm	200.0	470	227	
Frame#	Time	Left_Ankle_Outer1			Left_Ankle_Inner1			Left_Knee_Outer1			Left_Knee_Inner1			Left_Wrist1			Right_Wrist1			Right_Knee_Inner1			Right_Knee_Outer1			Right_Ankle_Inner1			Right_Ankle_Outer1			
		X1	Y1	Z1	X2	Y2	Z2	X3	Y3	Z3	X4	Y4	Z4	X5	Y5	Z5	X6	Y6	Z6	X7	Y7	Z7	X8	Y8	Z8	X9	Y9	Z9	X10	Y10	Z10	
470	2.34	-503.8421	123.35794	-547.09216	-548.44806	132.67455	-510.84949	-333.71713	519.64362	-383.84839	-439.08313	500.12677	-347.14807	-340.1571	979.9751	-539.1745	-662.68536	1039.7758	-399.491	-511.53976	645.40393	-138.33296	-622.19281	676.78778	-124.85411	-675.12622	240.22136	-222.07149	-767.8125	253.95728	-209.61406
471	2.345	-503.98849	121.91213	-547.46259	-549.00006	131.55637	-511.72543	-334.63882	518.15796	-382.48386	-440.07745	498.99481	-346.8735	-339.69025	978.83685	-537.88403	-663.67938	1035.6273	-400.75415	-517.73987	634.3244	-147.64856	-628.27625	665.60675	-134.90565	-679.96118	229.18726	-238.96988	-772.37311	243.35921	-226.13069
472	2.35	-504.07379	120.60992	-548.03308	-549.22021	130.05444	-512.30322	-335.67715	516.85968	-380.97775	-441.74869	497.54025	-346.14816	-339.52078	977.62366	-536.45654	-664.83026	1032.0851	-400.84018	-522.90424	623.31628	-157.73257	-634.18701	654.85468	-145.38074	-684.47772	219.61371	-254.17935	-776.96649	233.16469	-242.36777
473	2.355	-504.28708	119.25025	-548.29889	-549.77814	128.84906	-513.19128	-336.90298	515.28967	-379.53885	-442.8465	496.18774	-345.90723	-339.47598	976.52185	-535.10303	-665.07751	1026.6093	-405.80222	-528.73602	612.91437	-167.29947	-639.77832	644.28851	-156.28146	-689.54999	209.76996	-269.37946	-781.52795	223.26375	-258.48053
474	2.36	-504.57202	117.87269	-548.72754	-550.14319	127.66982	-514.00446	-338.16232	513.85596	-378.0607	-444.65256	494.53653	-345.38159	-339.42236	975.396	-533.64191	-666.28687	1022.5239	-407.49649	-534.40887	602.5943	-177.38872	-645.41266	634.08142	-167.34752	-694.24902	200.68521	-286.54315	-785.69232	213.90121	-274.94562
475	2.365	-504.93692	116.58579	-549.1424	-550.77295	126.04469	-514.32147	-339.42123	512.45618	-376.65201	-445.78198	493.33215	-344.90546	-339.36758	974.31177	-532.19086	-667.7641	1018.5314	-409.0686	-539.97522	592.34283	-188.342	-650.93622	624.17676	-178.5909	-698.36597	192.13292	-302.19485	-790.57574	204.96596	-291.51035
476	2.37	-505.46439	115.1563	-549.44659	-552.42004	125.11275	-516.26648	-340.70169	511.02191	-375.34283	-447.34671	491.9577	-344.52286	-339.45551	973.21667	-530.70679	-669.43298	1014.6513	-410.80573	-545.19275	582.55371	-199.72653	-655.60858	614.55939	-190.3187	-704.18695	183.62408	-318.57434	-794.6994	196.20959	-307.92722
477	2.375	-506.19708	113.85353	-549.66937	-553.03589	123.50311	-516.00659	-342.23874	509.59033	-374.16406	-449.03238	490.42697	-344.2536	-339.47269	972.10736	-529.22394	-671.17688	1010.9348	-412.90295	-549.93036	573.31708	-210.46193	-660.42395	605.39374	-201.75539	-709.19135	176.04269	-333.70093	-798.61255	187.82185	-324.05957
478	2.38	-506.93442	112.53709	-549.88965	-553.9588	121.87685	-516.03064	-343.71521	508.11285	-373.09341	-450.74887	489.28479	-343.85938	-339.55304	971.00702	-527.72089	-673.43597	1007.5906	-414.16879	-555.41827	563.92023	-224.084	-665.03619	596.74359	-213.10406	-712.9585	166.77055	-349.30457	-803.33844	179.53683	-339.17706
479	2.385	-507.88391	111.11212	-550.08563	-554.95538	120.54536	-516.39008	-345.12564	506.67758	-372.11313	-451.98114	488.13733	-343.94693	-339.84033	969.92206	-526.11926	-674.51984	1003.8474	-418.24823	-560.03571	555.19482	-235.98956	-669.49438	588.65399	-224.65974	-715.88184	158.88844	-360.4838	-806.29608	171.25026	-352.29437
480	2.39	-508.84204	109.90927	-550.27917	-556.19275	119.36316	-516.57117	-346.76413	505.36166	-371.26538	-454.50909	486.50775	-344.19669	-339.88431	968.79529	-524.68744	-676.72931	1000.6528	-420.19434	-565.10742	546.93182	-248.72745	-674.14746	581.36603	-235.88121	-717.05566	149.76575	-368.09891	-807.66302	161.96152	-362.44284
481	2.395	-509.91766	108.61147	-550.44843	-557.07941	118.1999	-516.71899	-348.37946	504.05734	-370.55869	-456.44012	485.3739	-344.42636	-340.18918	967.65314	-523.17395	-678.49689	997.72888	-423.02051	-570.27167	539.33417	-261.39325	-678.81757	574.88177	-247.29626	-716.30792	141.74484	-373.24643	-808.04791	152.72144	-370.06125
482	2.4	-510.72025	107.48413	-550.65369	-558.33722	116.90447	-516.84167	-350.00278	502.92725	-369.98026	-458.61526	484.25302	-344.68777	-340.44342	966.55035	-521.73932	-680.14954	995.6076	-425.71732	-575.22864	532.9082	-273.9473	-683.95422	569.57593	-258.77634	-715.79926	133.31345	-375.02682	-807.38531	143.2319	-376.60718
483	2.405	-511.58987	106.42758	-550.79272	-559.3949	115.5481	-516.82434	-351.62823	502.02142	-369.46307	-460.50952	483.31479	-345.00571	-340.52652	965.59241	-520.50385	-681.54279	994.48444	-427.56833	-579.89124	527.81897	-286.18317	-689.62311	565.66406	-270.66797	-714.50897	126.92133	-376.53671	-806.17542	134.58142	-382.06485
484	2.41	-512.2663	105.36254	-550.89984	-560.07013	114.67455	-517.2464	-353.32541	501.15054	-369.09744	-461.21866	482.54077	-347.2373	-340.74011	964.61481	-519.30554	-683.099	990.35046	-435.87921	-583.99231	524.19769	-297.30426	-696.42133	562.6441	-282.46356	-713.56433	121.92106	-379.13879	-804.71094	128.09682	-385.96136
485	2.415	-512.70245	104.51069	-551.20935	-560.66522	113.7558	-517.42462	-354.90704	500.52066	-368.7153	-463.95255	482.51547	-345.77307	-340.89709	963.8623	-518.18054	-683.93451	990.60547	-438.18488	-588.36694	521.18323	-308.60178	-702.34955	560.73035	-294.01389	-712.396	118.29364	-382.51572	-803.77875	123.34332	-388.82352
486	2.42	-513.06366	103.70666	-551.32721	-561.20789	112.82951	-517.74316	-356.81699	500.08786	-368.52017	-465.69925	482.07935	-346.58667	-340.88965	963.30573	-517.22083	-685.93518	989.30597	-441.83221	-593.00464	522.02478	-314.35614	-707.90845	559.22443	-303.92709	-711.10449	115.52089	-385.51801	-802.43585	120.03883	-390.90295
487	2.425	-513.16357	103.15363	-551.50995	-561.59351	112.24268	-518.15771	-358.22961	500.23727	-368.20023	-467.18167	481.55298	-348.24017	-340.84766	962.9375	-516.2215	-688.85132	988.52844	-447.94815	-597.42151	524.08984	-317.32779	-712.32812	558.63947	-312.6853	-709.9118	113.26462	-387.05893	-801.45514	117.18869	-393.14139
488	2.43	-513.15302	102.65031	-551.73999	-561.86584	111.57317	-518.34778	-360.35379	500.57315	-367.92117	-469.13065	481.6022	-349.20523	-340.80765	962.7749	-515.21417	-689.8736	988.34418	-453.54962	-602.38495	526.44946	-321.7999	-716.57574	558.54578	-321.14957	-708.95392	111.77705	-387.82974	-800.2937	114.34307	-394.5787
489	2.435	-513.07312	102.39208	-551.95367	-561.67291	111.5039	-519.01367	-361.73566	500.96048	-367.91623	-471.12338	481.9339	-350.26862	-340.7348	962.98627	-514.14246	-690.91492	988.67419	-458.94177	-607.29565	529.04663	-326.32788	-720.84833	558.83868	-329.70493	-708.41681	110.76849	-388.43808	-799.39191	111.8149	-395.80914
490	2.44	-512.8194	102.1643	-552.11316	-561.6142	111.27028	-519.49835	-363.58414	501.58517	-368.08319	-473.47119	482.2439	-351.44104	-340.57617	963.38269	-513.05273	-691.04407	988.7312	-466.0607	-612.08539	531.49933	-331.15033	-725.16461	559.461	-338.46118	-708.50696	110.14378	-388.93918	-799.37915	110.26688	-396.74976
